<svg width="148" height="62" viewBox="0 0 148 62" fill="none" xmlns="http://www.w3.org/2000/svg">
<g clip-path="url(#clip0_102_11)">
<path d="M19.3973 21.6681C18.4815 19.4398 18.6098 16.9329 19.9325 14.916L20.9213 13.5C19.0925 16.9271 20.8338 21.1358 23.6338 23.3423C24.383 23.9287 25.2182 24.396 26.11 24.7277C26.3492 24.8152 26.6204 24.9085 26.8683 24.9713C29.9979 25.7588 32.5485 25.2148 34.0667 22.9456C34.02 23.0156 33.9602 23.1265 33.8844 23.2665C33.2077 24.5206 31.2273 28.1913 25.4844 27.0392C25.375 27.0173 25.27 26.9808 25.165 26.9473L25.0717 26.9152L25.0046 26.8933C24.9736 26.8826 24.9425 26.8724 24.9113 26.8627C24.8262 26.8334 24.7416 26.8028 24.6575 26.7708C22.346 25.89 20.3642 24.035 19.3973 21.6681Z" fill="#EE834E"/>
<path d="M11.8417 17.8254C9.6002 21.1723 9.7227 25.6538 11.4712 29.1946C11.7945 29.8535 12.166 30.4876 12.5825 31.0919C12.8873 31.5483 13.2227 32.0544 13.615 32.4073C13.7769 32.5925 13.946 32.7719 14.1181 32.9483L14.2173 33.0504L14.2508 33.084C14.4249 33.26 14.6034 33.4316 14.786 33.5988L14.7875 33.6002L14.7904 33.6031C15.0108 33.8026 15.237 33.9956 15.4685 34.1821L15.5269 34.2288C15.731 34.3921 15.9396 34.5525 16.1539 34.7056L16.1627 34.7115L16.1729 34.7188C16.2414 34.7683 16.3114 34.8165 16.3814 34.8631L16.4587 34.9156C16.5045 34.9459 16.5497 34.977 16.5944 35.009C16.7475 35.111 16.9021 35.2088 17.0596 35.305L17.1033 35.3298L17.1252 35.3444C17.2941 35.4451 17.4647 35.5428 17.6371 35.6375L17.6823 35.6608L17.7406 35.6929C17.8164 35.7338 17.8923 35.776 17.971 35.8154L18.0148 35.8373C18.2404 35.9522 18.4689 36.0611 18.7002 36.164L18.7469 36.1829C18.9639 36.2785 19.1832 36.369 19.4046 36.4542L19.4483 36.4702C19.5985 36.5285 19.7487 36.581 19.9004 36.6335L19.9762 36.6598L20.1046 36.7021C20.1615 36.7196 20.2183 36.74 20.2737 36.759C20.4327 36.8144 20.5917 36.8683 20.7579 36.8975C32.3283 38.8867 35 29.6408 35 29.6408C32.5923 33.24 27.9285 34.9579 22.9527 33.6163C22.7324 33.556 22.5135 33.4904 22.2964 33.4194C22.2377 33.4013 22.1793 33.3818 22.1214 33.361L22.0996 33.3538C21.9459 33.3022 21.7933 33.2477 21.6417 33.1904L21.6373 33.1875C21.3856 33.0923 21.1367 32.9902 20.8906 32.8813L20.8089 32.8448C20.5222 32.7152 20.2401 32.5756 19.9631 32.4263L19.9019 32.3942L19.7269 32.3008C19.5671 32.2116 19.4091 32.1192 19.2529 32.0238C18.9444 31.8354 18.6429 31.6359 18.3487 31.4258C18.1363 31.2725 17.9277 31.114 17.7231 30.9504L17.6721 30.9081C17.6423 30.884 17.6126 30.8597 17.5831 30.8352C15.4044 29.0502 13.6777 26.6104 12.8581 23.8454C11.9977 20.9754 12.1829 17.7554 13.6733 15.1421L11.8417 17.8254Z" fill="#EE834E"/>
<path d="M2.22253 21.7206C-0.874971 26.3435 -0.489971 32.3592 1.8769 37.2708C1.92065 37.3656 1.96878 37.4589 2.01545 37.5508L2.05045 37.6208L2.0942 37.7069C2.13088 37.7833 2.16978 37.8587 2.21086 37.9329L2.22982 37.9694L2.3319 38.1589L2.35378 38.1983C2.4267 38.3325 2.50253 38.4667 2.57982 38.6008L2.60461 38.6446C2.72148 38.8484 2.84353 39.0492 2.97065 39.2469L2.9969 39.2906L3.08295 39.4262C3.20545 39.6158 3.33086 39.8069 3.46211 39.995V39.9964C3.46522 40.001 3.46863 40.0054 3.47232 40.0096L3.50732 40.0577L3.53649 40.0985C3.65024 40.2589 3.76545 40.4194 3.88357 40.5769L4.01482 40.7489C4.30067 41.1194 4.59633 41.4822 4.90149 41.8369L4.91024 41.8471L4.91753 41.8544L4.92774 41.866C5.23713 42.2146 5.55714 42.5536 5.88732 42.8825L5.93107 42.9262L6.03461 43.0283C6.19988 43.1899 6.36811 43.3484 6.5392 43.5037L6.58732 43.5475L6.62524 43.5796C6.80775 43.7425 6.99249 43.9029 7.1794 44.0608L7.26107 44.1294C7.38503 44.2314 7.51045 44.3335 7.63732 44.4327L7.83711 44.5917C7.97711 44.6981 8.11711 44.8031 8.25857 44.9052L8.2819 44.9227L8.41315 45.0189L8.45399 45.0481C8.58232 45.1414 8.71211 45.2289 8.84336 45.3164L8.86378 45.331C8.92263 45.3706 8.98097 45.411 9.03878 45.4521C9.28223 45.6119 9.52874 45.767 9.77815 45.9173L9.8569 45.9639C10.0777 46.0944 10.3009 46.2208 10.5263 46.3431L10.6036 46.3854L10.6896 46.4321C10.7757 46.4787 10.8602 46.5254 10.9477 46.5706L10.9842 46.5881L11.0279 46.61L11.0775 46.6348C11.1067 46.6494 11.1373 46.6639 11.1679 46.6814C11.3488 46.7704 11.5296 46.8579 11.7134 46.9439L11.7819 46.9746L11.8286 46.9964C12.2843 47.204 12.7479 47.3937 13.2184 47.5652L13.2329 47.5696L13.2942 47.5929C13.6267 47.7125 13.9622 47.8234 14.3004 47.9254C14.4696 47.9823 14.6402 48.0377 14.8152 48.0712C29.8025 50.9092 34.1557 38.7233 34.1557 38.7233C30.4996 43.6671 24.01 44.9723 17.8602 43.5198C17.6288 43.4636 17.4001 43.397 17.1748 43.32L17.0027 43.266C16.7811 43.196 16.5609 43.1202 16.3421 43.0429L16.2517 43.0094C16.0548 42.9365 15.8623 42.8635 15.6684 42.7848L15.505 42.7177C15.2939 42.6312 15.0843 42.5407 14.8765 42.4464L14.8094 42.4173C14.6118 42.3255 14.4154 42.2312 14.2202 42.1344L14.1604 42.1023C14.1292 42.0874 14.0981 42.0723 14.0671 42.0571L13.755 41.8923L13.6559 41.8398C13.6234 41.8221 13.5908 41.8046 13.5582 41.7873L13.3832 41.691C13.2169 41.5992 13.0536 41.5014 12.8902 41.4037L12.8275 41.3673L12.7254 41.3089C12.4716 41.1523 12.2207 40.9909 11.9729 40.8248L11.9102 40.781C11.2878 40.3661 10.6913 39.9136 10.1238 39.4262C9.9504 39.2796 9.77926 39.1304 9.61045 38.9785L9.58711 38.9567C9.36543 38.7527 9.14761 38.5446 8.93378 38.3325C8.81028 38.2105 8.68874 38.0865 8.5692 37.9606L8.51961 37.911C8.33073 37.7136 8.14597 37.5123 7.96545 37.3073L7.9567 37.2985L7.95378 37.2942C7.7992 37.1192 7.64753 36.9383 7.49878 36.7575L7.3792 36.6102C7.22653 36.4209 7.07727 36.2288 6.93149 36.0342C6.80315 35.8592 6.67628 35.6871 6.55232 35.5106C3.13982 30.6777 1.91336 24.0102 4.6419 18.5356L2.22253 21.7206Z" fill="#EE834E"/>
</g>
<path d="M50.568 41.12C49.976 41.12 49.552 40.992 49.296 40.736C49.04 40.464 48.912 39.96 48.912 39.224C48.912 38.728 48.96 38.096 49.056 37.328C49.168 36.544 49.344 35.472 49.584 34.112C50 31.6 50.328 29.424 50.568 27.584C50.712 26.432 50.784 25.472 50.784 24.704C50.784 23.984 50.52 23.624 49.992 23.624C49.576 23.624 49.072 23.84 48.48 24.272C47.904 24.688 47.264 25.36 46.56 26.288C46.336 26.592 46.088 26.744 45.816 26.744C45.592 26.744 45.392 26.64 45.216 26.432C45.056 26.208 44.976 25.96 44.976 25.688C44.976 25.432 45.024 25.176 45.12 24.92C45.232 24.648 45.408 24.344 45.648 24.008C46.416 22.936 47.272 22.112 48.216 21.536C49.16 20.944 50.104 20.648 51.048 20.648C51.928 20.648 52.6 20.928 53.064 21.488C53.544 22.048 53.784 22.864 53.784 23.936C53.784 24.368 53.744 24.88 53.664 25.472C53.584 26.048 53.512 26.52 53.448 26.888C53.384 27.256 53.336 27.512 53.304 27.656C54.216 25.048 55.24 23.232 56.376 22.208C57.512 21.168 58.76 20.648 60.12 20.648C61.16 20.648 61.976 21.016 62.568 21.752C63.176 22.488 63.48 23.528 63.48 24.872C63.48 25.4 63.408 26.056 63.264 26.84C64.064 24.632 65 23.048 66.072 22.088C67.144 21.128 68.376 20.648 69.768 20.648C70.888 20.648 71.744 21.008 72.336 21.728C72.944 22.448 73.248 23.456 73.248 24.752C73.248 25.456 73.144 26.312 72.936 27.32L71.472 34.184C71.312 34.984 71.232 35.672 71.232 36.248C71.232 36.92 71.384 37.424 71.688 37.76C72.008 38.096 72.448 38.264 73.008 38.264C73.536 38.264 74.048 38.088 74.544 37.736C75.056 37.384 75.656 36.8 76.344 35.984C76.536 35.76 76.752 35.648 76.992 35.648C77.2 35.648 77.36 35.744 77.472 35.936C77.6 36.128 77.664 36.392 77.664 36.728C77.664 37.352 77.512 37.848 77.208 38.216C76.376 39.224 75.552 39.96 74.736 40.424C73.92 40.888 73.064 41.12 72.168 41.12C70.808 41.12 69.744 40.72 68.976 39.92C68.208 39.104 67.824 38.016 67.824 36.656C67.824 35.712 68.016 34.344 68.4 32.552L69.36 28.16C69.392 28.016 69.448 27.76 69.528 27.392C69.608 27.024 69.672 26.68 69.72 26.36C69.768 26.024 69.792 25.696 69.792 25.376C69.792 24.816 69.68 24.4 69.456 24.128C69.248 23.84 68.944 23.696 68.544 23.696C67.792 23.696 67 24.184 66.168 25.16C65.352 26.12 64.568 27.72 63.816 29.96C63.08 32.2 62.48 35.112 62.016 38.696C61.904 39.656 61.704 40.304 61.416 40.64C61.144 40.96 60.696 41.12 60.072 41.12C59.528 41.12 59.128 40.992 58.872 40.736C58.632 40.48 58.512 40 58.512 39.296C58.512 38.64 58.6 37.784 58.776 36.728C58.952 35.656 59.176 34.4 59.448 32.96C60.184 29.088 60.552 26.592 60.552 25.472C60.552 24.864 60.432 24.416 60.192 24.128C59.968 23.84 59.624 23.696 59.16 23.696C58.376 23.696 57.568 24.144 56.736 25.04C55.904 25.92 55.088 27.496 54.288 29.768C53.504 32.024 52.848 35.08 52.32 38.936C52.208 39.752 52.04 40.32 51.816 40.64C51.608 40.96 51.192 41.12 50.568 41.12ZM88.0181 35.696C88.2261 35.696 88.3861 35.8 88.4981 36.008C88.6261 36.2 88.6901 36.448 88.6901 36.752C88.6901 37.12 88.6341 37.408 88.5221 37.616C88.4101 37.824 88.2341 38.008 87.9941 38.168L83.3861 41.264C82.7781 44.576 81.9781 47.176 80.9861 49.064C80.0101 50.968 78.7621 51.92 77.2421 51.92C76.4261 51.92 75.7621 51.664 75.2501 51.152C74.7381 50.656 74.4821 50 74.4821 49.184C74.4821 48.432 74.6501 47.664 74.9861 46.88C75.3381 46.096 75.9781 45.192 76.9061 44.168C77.8501 43.16 79.1781 42 80.8901 40.688L80.9621 40.136C81.0741 39.544 81.2021 38.696 81.3461 37.592C81.0261 38.744 80.5781 39.624 80.0021 40.232C79.4261 40.824 78.8181 41.12 78.1781 41.12C77.4581 41.12 76.8661 40.792 76.4021 40.136C75.9541 39.464 75.7301 38.632 75.7301 37.64C75.7301 36.44 75.8101 35.344 75.9701 34.352C76.1301 33.344 76.3941 32.28 76.7621 31.16C76.9221 30.68 77.1461 30.336 77.4341 30.128C77.7221 29.92 78.1781 29.816 78.8021 29.816C79.1541 29.816 79.3941 29.872 79.5221 29.984C79.6661 30.096 79.7381 30.264 79.7381 30.488C79.7381 30.616 79.6501 31.048 79.4741 31.784C79.3141 32.376 79.1861 32.912 79.0901 33.392C78.9621 34.048 78.8501 34.68 78.7541 35.288C78.6581 35.88 78.6101 36.368 78.6101 36.752C78.6101 37.36 78.7781 37.664 79.1141 37.664C79.3541 37.664 79.6501 37.424 80.0021 36.944C80.3701 36.464 80.7541 35.736 81.1541 34.76C81.5701 33.784 81.9701 32.584 82.3541 31.16C82.4821 30.68 82.6741 30.336 82.9301 30.128C83.2021 29.92 83.6021 29.816 84.1301 29.816C84.4981 29.816 84.7541 29.864 84.8981 29.96C85.0421 30.056 85.1141 30.216 85.1141 30.44C85.1141 30.84 84.9061 32.216 84.4901 34.568L83.8661 38.432C85.0981 37.504 86.2981 36.656 87.4661 35.888C87.6741 35.76 87.8581 35.696 88.0181 35.696ZM77.5061 49.592C77.9061 49.592 78.3541 49.128 78.8501 48.2C79.3461 47.272 79.8421 45.728 80.3381 43.568C79.1061 44.608 78.2101 45.552 77.6501 46.4C77.1061 47.264 76.8341 48.016 76.8341 48.656C76.8341 48.928 76.8821 49.152 76.9781 49.328C77.0901 49.504 77.2661 49.592 77.5061 49.592ZM106.703 43.304C106.863 43.304 106.983 43.384 107.063 43.544C107.159 43.72 107.207 43.944 107.207 44.216C107.207 44.728 107.071 45.232 106.799 45.728C106.255 46.72 105.535 47.48 104.639 48.008C103.759 48.552 102.855 48.824 101.927 48.824C100.983 48.824 100.191 48.672 99.5505 48.368C98.9105 48.08 98.3665 47.64 97.9185 47.048C97.4705 46.472 97.0385 45.704 96.6225 44.744C96.1905 43.752 95.8305 43.008 95.5425 42.512C95.2705 42.032 94.9825 41.68 94.6785 41.456C94.3745 41.232 93.9825 41.072 93.5025 40.976C91.7265 40.624 90.2945 39.744 89.2065 38.336C88.1345 36.928 87.5985 35.112 87.5985 32.888C87.5985 30.456 88.0385 28.312 88.9185 26.456C89.8145 24.6 91.0225 23.168 92.5425 22.16C94.0785 21.152 95.7745 20.648 97.6305 20.648C99.0545 20.648 100.335 20.968 101.471 21.608C102.623 22.248 103.535 23.192 104.207 24.44C104.879 25.672 105.215 27.152 105.215 28.88C105.215 30.896 104.911 32.712 104.303 34.328C103.695 35.944 102.855 37.288 101.783 38.36C100.711 39.432 99.4785 40.192 98.0865 40.64C98.4865 40.864 98.8305 41.192 99.1185 41.624C99.4225 42.056 99.7425 42.68 100.079 43.496C100.447 44.392 100.839 45.032 101.255 45.416C101.687 45.8 102.215 45.992 102.839 45.992C103.367 45.992 103.879 45.808 104.375 45.44C104.871 45.088 105.431 44.504 106.055 43.688C106.247 43.432 106.463 43.304 106.703 43.304ZM95.4225 38.288C96.6705 38.288 97.7665 37.904 98.7105 37.136C99.6705 36.368 100.407 35.304 100.919 33.944C101.431 32.568 101.687 31.016 101.687 29.288C101.687 27.384 101.287 25.944 100.487 24.968C99.6865 23.976 98.6545 23.48 97.3905 23.48C96.1745 23.48 95.0865 23.872 94.1265 24.656C93.1825 25.424 92.4465 26.488 91.9185 27.848C91.3905 29.208 91.1265 30.752 91.1265 32.48C91.1265 34.384 91.5265 35.832 92.3265 36.824C93.1265 37.8 94.1585 38.288 95.4225 38.288ZM109.022 41.12C108.302 41.12 107.71 40.792 107.246 40.136C106.798 39.464 106.574 38.632 106.574 37.64C106.574 36.44 106.654 35.344 106.814 34.352C106.974 33.344 107.238 32.28 107.606 31.16C107.766 30.68 107.99 30.336 108.278 30.128C108.566 29.92 109.022 29.816 109.646 29.816C109.998 29.816 110.238 29.872 110.366 29.984C110.51 30.096 110.582 30.264 110.582 30.488C110.582 30.616 110.494 31.048 110.318 31.784C110.158 32.376 110.03 32.912 109.934 33.392C109.614 35.072 109.454 36.192 109.454 36.752C109.454 37.088 109.494 37.328 109.574 37.472C109.654 37.6 109.782 37.664 109.958 37.664C110.198 37.664 110.494 37.424 110.846 36.944C111.214 36.464 111.598 35.736 111.998 34.76C112.414 33.784 112.814 32.584 113.198 31.16C113.326 30.68 113.518 30.336 113.774 30.128C114.046 29.92 114.446 29.816 114.974 29.816C115.342 29.816 115.598 29.864 115.742 29.96C115.886 30.04 115.958 30.2 115.958 30.44C115.958 30.84 115.758 31.936 115.358 33.728C114.91 35.776 114.686 37.04 114.686 37.52C114.686 37.824 114.75 38.064 114.878 38.24C115.006 38.4 115.174 38.48 115.382 38.48C115.702 38.48 116.078 38.288 116.51 37.904C116.958 37.504 117.55 36.864 118.286 35.984C118.478 35.76 118.694 35.648 118.934 35.648C119.142 35.648 119.302 35.744 119.414 35.936C119.542 36.128 119.606 36.392 119.606 36.728C119.606 37.368 119.454 37.864 119.15 38.216C118.462 39.064 117.718 39.76 116.918 40.304C116.134 40.848 115.238 41.12 114.23 41.12C113.462 41.12 112.894 40.824 112.526 40.232C112.174 39.64 111.998 38.808 111.998 37.736C111.726 38.824 111.318 39.664 110.774 40.256C110.23 40.832 109.646 41.12 109.022 41.12ZM128.364 35.648C128.572 35.648 128.732 35.744 128.844 35.936C128.972 36.128 129.036 36.392 129.036 36.728C129.036 37.368 128.884 37.864 128.58 38.216C127.988 38.936 127.148 39.6 126.06 40.208C124.988 40.816 123.836 41.12 122.604 41.12C120.924 41.12 119.62 40.664 118.692 39.752C117.764 38.84 117.3 37.592 117.3 36.008C117.3 34.904 117.532 33.88 117.996 32.936C118.46 31.976 119.1 31.216 119.916 30.656C120.748 30.096 121.684 29.816 122.724 29.816C123.652 29.816 124.396 30.096 124.956 30.656C125.516 31.2 125.796 31.944 125.796 32.888C125.796 33.992 125.396 34.944 124.596 35.744C123.812 36.528 122.476 37.152 120.588 37.616C120.988 38.352 121.748 38.72 122.868 38.72C123.588 38.72 124.404 38.472 125.316 37.976C126.244 37.464 127.044 36.8 127.716 35.984C127.908 35.76 128.124 35.648 128.364 35.648ZM122.316 32.168C121.724 32.168 121.22 32.512 120.804 33.2C120.404 33.888 120.204 34.72 120.204 35.696V35.744C121.148 35.52 121.892 35.184 122.436 34.736C122.98 34.288 123.252 33.768 123.252 33.176C123.252 32.872 123.164 32.632 122.988 32.456C122.828 32.264 122.604 32.168 122.316 32.168ZM128.786 41.12C128.178 41.12 127.746 40.8 127.49 40.16C127.25 39.52 127.13 38.496 127.13 37.088C127.13 35.008 127.426 33.032 128.018 31.16C128.162 30.696 128.394 30.36 128.714 30.152C129.05 29.928 129.514 29.816 130.106 29.816C130.426 29.816 130.65 29.856 130.778 29.936C130.906 30.016 130.97 30.168 130.97 30.392C130.97 30.648 130.85 31.224 130.61 32.12C130.45 32.76 130.322 33.32 130.226 33.8C130.13 34.28 130.05 34.872 129.986 35.576C130.514 34.2 131.106 33.08 131.762 32.216C132.418 31.352 133.058 30.736 133.682 30.368C134.322 30 134.906 29.816 135.434 29.816C136.474 29.816 136.994 30.336 136.994 31.376C136.994 31.584 136.922 32.088 136.778 32.888C136.65 33.528 136.586 33.928 136.586 34.088C136.586 34.648 136.786 34.928 137.186 34.928C137.634 34.928 138.21 34.576 138.914 33.872C139.122 33.664 139.338 33.56 139.562 33.56C139.77 33.56 139.93 33.656 140.042 33.848C140.17 34.024 140.234 34.264 140.234 34.568C140.234 35.16 140.074 35.624 139.754 35.96C139.306 36.424 138.778 36.824 138.17 37.16C137.578 37.48 136.946 37.64 136.274 37.64C135.426 37.64 134.778 37.424 134.33 36.992C133.898 36.56 133.682 35.976 133.682 35.24C133.682 35 133.706 34.76 133.754 34.52C133.786 34.2 133.802 33.984 133.802 33.872C133.802 33.616 133.714 33.488 133.538 33.488C133.298 33.488 132.978 33.76 132.578 34.304C132.194 34.832 131.81 35.536 131.426 36.416C131.042 37.296 130.73 38.224 130.49 39.2C130.314 39.952 130.106 40.464 129.866 40.736C129.642 40.992 129.282 41.12 128.786 41.12ZM146.404 29.816C146.772 29.816 147.028 29.864 147.172 29.96C147.316 30.056 147.388 30.216 147.388 30.44C147.388 30.824 147.18 32.192 146.764 34.544C146.396 36.8 146.18 38.136 146.116 38.552C145.524 42.664 144.708 45.92 143.668 48.32C142.628 50.72 141.244 51.92 139.516 51.92C138.7 51.92 138.036 51.664 137.524 51.152C137.012 50.656 136.756 50 136.756 49.184C136.756 48.432 136.924 47.664 137.26 46.88C137.612 46.096 138.252 45.192 139.18 44.168C140.124 43.16 141.452 42 143.164 40.688L143.236 40.136C143.348 39.544 143.476 38.696 143.62 37.592C143.3 38.744 142.852 39.624 142.276 40.232C141.7 40.824 141.092 41.12 140.452 41.12C139.732 41.12 139.14 40.792 138.676 40.136C138.228 39.464 138.004 38.632 138.004 37.64C138.004 36.44 138.084 35.344 138.244 34.352C138.404 33.344 138.668 32.28 139.036 31.16C139.196 30.68 139.42 30.336 139.708 30.128C139.996 29.92 140.452 29.816 141.076 29.816C141.428 29.816 141.668 29.872 141.796 29.984C141.94 30.096 142.012 30.264 142.012 30.488C142.012 30.616 141.924 31.048 141.748 31.784C141.588 32.376 141.46 32.912 141.364 33.392C141.236 34.048 141.124 34.68 141.028 35.288C140.932 35.88 140.884 36.368 140.884 36.752C140.884 37.36 141.052 37.664 141.388 37.664C141.628 37.664 141.924 37.424 142.276 36.944C142.644 36.464 143.028 35.736 143.428 34.76C143.844 33.784 144.244 32.584 144.628 31.16C144.756 30.68 144.948 30.336 145.204 30.128C145.476 29.92 145.876 29.816 146.404 29.816ZM139.78 49.592C140.18 49.592 140.628 49.128 141.124 48.2C141.62 47.272 142.116 45.728 142.612 43.568C141.38 44.608 140.484 45.552 139.924 46.4C139.38 47.264 139.108 48.016 139.108 48.656C139.108 48.928 139.156 49.152 139.252 49.328C139.364 49.504 139.54 49.592 139.78 49.592Z" fill="#EE834E"/>
<defs>
<clipPath id="clip0_102_11">
<rect width="35" height="35" fill="white" transform="translate(0 13.5)"/>
</clipPath>
</defs>
</svg>
